<?xml version="1.0" encoding="utf-8"?>
<!-- Generator: Adobe Illustrator 24.0.0, SVG Export Plug-In . SVG Version: 6.00 Build 0)  -->
<svg version="1.1" id="Layer_1" xmlns="http://www.w3.org/2000/svg" xmlns:xlink="http://www.w3.org/1999/xlink" x="0px" y="0px"
	 viewBox="0 0 70 70" style="enable-background:new 0 0 70 70;" xml:space="preserve">
<style type="text/css">
	.st0{fill:#FFFFFF;stroke:#2560D4;stroke-miterlimit:10;}
	.st1{fill:#2560D4;}
</style>
<circle class="st0" cx="35" cy="35" r="35"/>
<g>
	<g>
		<g>
			<path class="st1" d="M34.644,22.506c-4.967,0.174-9.093,4.049-9.57,8.996c-0.097,0.989-0.041,1.948,0.133,2.865l0,0
				c0,0,0.015,0.108,0.067,0.313c0.154,0.687,0.384,1.353,0.671,1.979c1,2.368,3.311,6.33,8.499,10.641
				c0.318,0.267,0.784,0.267,1.107,0c5.187-4.306,7.499-8.268,8.504-10.646c0.292-0.625,0.518-1.287,0.671-1.979
				c0.046-0.2,0.067-0.313,0.067-0.313l0,0c0.118-0.615,0.179-1.246,0.179-1.891C44.973,26.843,40.314,22.306,34.644,22.506z
				 M34.998,37.433c-2.676,0-4.844-2.168-4.844-4.844s2.168-4.844,4.844-4.844s4.844,2.168,4.844,4.844S37.674,37.433,34.998,37.433
				z"/>
		</g>
	</g>
</g>
</svg>
