<?xml version="1.0" encoding="utf-8"?>
<!-- Generator: Adobe Illustrator 24.0.0, SVG Export Plug-In . SVG Version: 6.00 Build 0)  -->
<svg version="1.1" id="Layer_1" xmlns="http://www.w3.org/2000/svg" xmlns:xlink="http://www.w3.org/1999/xlink" x="0px" y="0px"
	 viewBox="0 0 70 70" style="enable-background:new 0 0 70 70;" xml:space="preserve">
<style type="text/css">
	.st0{fill:#FFFFFF;stroke:#2560D4;stroke-miterlimit:10;}
	.st1{fill:#2560D4;}
</style>
<circle class="st0" cx="35" cy="35" r="35"/>
<g>
	<g>
		<path class="st1" d="M47.446,41.87c-0.071-0.213-0.521-0.527-1.349-0.941c-0.225-0.13-0.544-0.308-0.958-0.533
			c-0.414-0.225-0.79-0.432-1.127-0.622c-0.338-0.189-0.654-0.373-0.95-0.55c-0.047-0.036-0.195-0.139-0.444-0.311
			c-0.249-0.172-0.459-0.299-0.631-0.382c-0.172-0.083-0.34-0.124-0.506-0.124c-0.237,0-0.532,0.169-0.887,0.506
			c-0.355,0.338-0.681,0.704-0.976,1.101c-0.296,0.397-0.61,0.763-0.941,1.101c-0.332,0.338-0.604,0.506-0.817,0.506
			c-0.107,0-0.24-0.03-0.4-0.089c-0.16-0.059-0.281-0.11-0.364-0.151c-0.083-0.042-0.224-0.124-0.426-0.249
			c-0.202-0.124-0.314-0.192-0.338-0.204C34.71,40.03,33.32,39,32.16,37.84c-1.16-1.16-2.19-2.551-3.089-4.173
			c-0.012-0.024-0.08-0.136-0.204-0.337c-0.124-0.201-0.207-0.343-0.249-0.426c-0.041-0.083-0.092-0.204-0.151-0.364
			s-0.089-0.293-0.089-0.4c0-0.213,0.169-0.485,0.506-0.817c0.337-0.331,0.704-0.645,1.101-0.941
			c0.397-0.296,0.763-0.621,1.101-0.976c0.337-0.355,0.506-0.651,0.506-0.888c0-0.166-0.041-0.334-0.124-0.506
			c-0.083-0.172-0.21-0.382-0.382-0.63c-0.172-0.249-0.275-0.396-0.311-0.444c-0.177-0.296-0.361-0.612-0.55-0.95
			c-0.19-0.337-0.397-0.713-0.622-1.128c-0.225-0.414-0.402-0.734-0.533-0.959c-0.414-0.828-0.728-1.278-0.941-1.349
			c-0.083-0.036-0.207-0.053-0.373-0.053c-0.32,0-0.737,0.059-1.252,0.178c-0.515,0.118-0.92,0.242-1.216,0.373
			c-0.592,0.248-1.219,0.97-1.882,2.166c-0.604,1.112-0.905,2.214-0.905,3.302c0,0.319,0.021,0.63,0.062,0.932
			c0.041,0.302,0.115,0.642,0.222,1.021c0.106,0.379,0.192,0.66,0.257,0.843c0.065,0.183,0.186,0.512,0.364,0.985
			c0.177,0.474,0.284,0.763,0.32,0.87c0.414,1.16,0.905,2.196,1.474,3.107c0.935,1.515,2.21,3.081,3.826,4.697
			c1.616,1.616,3.181,2.891,4.696,3.826c0.911,0.568,1.947,1.059,3.107,1.474c0.107,0.035,0.396,0.142,0.87,0.32
			c0.474,0.177,0.802,0.299,0.985,0.364c0.183,0.065,0.465,0.151,0.843,0.258c0.379,0.107,0.719,0.181,1.021,0.222
			c0.302,0.041,0.613,0.062,0.932,0.062c1.089,0,2.19-0.302,3.303-0.906c1.195-0.663,1.917-1.29,2.166-1.882
			c0.131-0.296,0.255-0.701,0.373-1.216c0.119-0.515,0.178-0.932,0.178-1.252C47.5,42.078,47.482,41.954,47.446,41.87z"/>
	</g>
</g>
</svg>
