<?xml version="1.0" encoding="utf-8"?>
<!-- Generator: Adobe Illustrator 24.0.0, SVG Export Plug-In . SVG Version: 6.00 Build 0)  -->
<svg version="1.1" id="Layer_1" xmlns="http://www.w3.org/2000/svg" xmlns:xlink="http://www.w3.org/1999/xlink" x="0px" y="0px"
	 viewBox="0 0 70 70" style="enable-background:new 0 0 70 70;" xml:space="preserve">
<style type="text/css">
	.st0{fill:#FFFFFF;stroke:#2560D4;stroke-miterlimit:10;}
	.st1{fill:#2560D4;}
</style>
<circle class="st0" cx="35" cy="35" r="35"/>
<g>
	<g>
		<path class="st1" d="M44.107,35.184l2.524-1.714c0.37-0.252,0.403-0.785,0.069-1.081l-2.592-2.29V35.184z"/>
		<path class="st1" d="M34.082,22.844l-1.424,1.259h4.663l-1.424-1.259C35.38,22.385,34.601,22.385,34.082,22.844z"/>
		<path class="st1" d="M23.37,33.47l2.524,1.714v-5.085l-2.592,2.29C22.964,32.685,23,33.22,23.37,33.47z"/>
		<path class="st1" d="M39.852,39.233l6.712,6.484c0.436,0.42,1.163,0.112,1.163-0.494V35.179c0-0.551-0.617-0.878-1.07-0.568
			L39.852,39.233z"/>
		<path class="st1" d="M23.436,45.717l6.712-6.484l-6.805-4.622c-0.455-0.31-1.07,0.016-1.07,0.568v10.045
			C22.273,45.83,23,46.137,23.436,45.717z"/>
		<path class="st1" d="M45.806,46.321l-6.775-6.545l-3.001,2.038c-0.315,0.214-0.678,0.321-1.04,0.321
			c-0.362,0-0.724-0.107-1.04-0.321l-3.001-2.038l-6.775,6.545c-0.444,0.428-0.14,1.179,0.477,1.179h20.679
			C45.946,47.497,46.25,46.748,45.806,46.321z"/>
		<path class="st1" d="M31.736,24.925h-3.649c-0.757,0-1.371,0.614-1.371,1.371v2.993v0.071v6.372l0,0l7.458,5.17
			c0.244,0.184,0.535,0.277,0.826,0.277c0.291,0,0.582-0.093,0.826-0.277l7.458-5.17v-6.372v-0.071v-2.993
			c0-0.757-0.614-1.371-1.371-1.371h-3.643h-0.642h-5.248H31.736L31.736,24.925z M30.804,33.84h8.373
			c0.212,0,0.397,0.155,0.419,0.366c0.027,0.248-0.166,0.457-0.409,0.457h-8.393c-0.243,0-0.436-0.209-0.409-0.457
			C30.407,33.996,30.592,33.84,30.804,33.84z M39.187,30.082c0.243,0,0.436,0.209,0.409,0.457c-0.022,0.21-0.208,0.366-0.419,0.366
			h-8.373c-0.212,0-0.397-0.155-0.419-0.366c-0.027-0.248,0.166-0.457,0.409-0.457H39.187z"/>
	</g>
</g>
</svg>
