<?xml version="1.0" encoding="utf-8"?>
<!-- Generator: Adobe Illustrator 24.0.0, SVG Export Plug-In . SVG Version: 6.00 Build 0)  -->
<svg version="1.1" id="Layer_1" xmlns="http://www.w3.org/2000/svg" xmlns:xlink="http://www.w3.org/1999/xlink" x="0px" y="0px"
	 viewBox="0 0 55 31.939" style="enable-background:new 0 0 55 31.939;" xml:space="preserve">
<style type="text/css">
	.st0{fill:#2560D4;}
	.st1{fill:#FFFFFF;}
</style>
<g>
	<path class="st0" d="M31.562,5.028L31.562,5.028c-0.011,0-0.011,0-0.021,0.011c-0.204,0.065-0.398,0.118-0.602,0.172V5.2
		c-1.612,0.409-2.783,0.495-3.439,0.495l0,0c-0.011,0-0.021,0-0.021,0c-0.376,0-0.58-0.022-0.58-0.022l0,0
		c-0.784-0.043-1.558-0.161-2.321-0.334l0,0c-2.332-0.484-4.18-1.712-4.18-1.712l0,0c-0.451-0.269-0.881-0.571-1.3-0.894
		C17.022,1.001,14.411,0.032,11.713,0H11.37C5.083,0,0,5.093,0,11.38c0,2.056,0.559,4.081,1.612,5.846
		c8.543,14.319,27.059,18.992,41.362,10.422c4.277-2.562,7.855-6.148,10.413-10.422c3.224-5.394,1.461-12.382-3.922-15.611
		C47.702,0.56,45.682,0,43.63,0h-0.344c-2.697,0.032-5.309,1.001-7.383,2.735C34.603,3.758,33.131,4.544,31.562,5.028z
		 M42.007,4.825c3.922,0,7.093,3.181,7.093,7.093c0,1.279-0.344,2.536-0.999,3.632c-6.781,11.359-21.471,15.055-32.808,8.275
		c-3.396-2.031-6.233-4.868-8.264-8.264c-2.01-3.364-0.913-7.716,2.45-9.725c1.096-0.656,2.353-0.999,3.632-0.999h0.312
		c1.719,0.032,3.374,0.656,4.685,1.762c5.524,4.438,13.39,4.438,18.903,0c1.311-1.107,2.966-1.73,4.685-1.762h0.312V4.825z"/>
</g>
</svg>
