<?xml version="1.0" encoding="utf-8"?>
<!-- Generator: Adobe Illustrator 24.0.0, SVG Export Plug-In . SVG Version: 6.00 Build 0)  -->
<svg version="1.1" id="Layer_1" xmlns="http://www.w3.org/2000/svg" xmlns:xlink="http://www.w3.org/1999/xlink" x="0px" y="0px"
	 viewBox="0 0 65 65" style="enable-background:new 0 0 65 65;" xml:space="preserve">
<style type="text/css">
	.st0{fill:#2560D4;}
	.st1{fill:#FFFFFF;}
</style>
<circle class="st0" cx="32.5" cy="32.5" r="32.5"/>
<g>
	<g>
		<path class="st1" d="M49.067,29.296c-0.577-1.238-2.077-1.345-2.838-0.45l-1.741,2.041l-3.206,0.524H41.28
			c-0.46,0-0.897,0.202-1.196,0.552l-4,4.69H22.47c-0.378,0-0.744,0.136-1.03,0.384l-5.099,4.415
			c-0.781,0.676-0.734,1.953,0.233,2.549c0.583,0.36,1.344,0.245,1.862-0.203l4.619-4h16.838l4.958,4.294
			c0.317,0.274,0.707,0.409,1.096,0.409c0.674,0,1.343-0.405,1.612-1.186c0.215-0.624-0.009-1.317-0.507-1.749l-4.182-3.621
			l5.919-6.939C49.193,30.532,49.33,29.86,49.067,29.296z"/>
		<circle class="st1" cx="29.197" cy="28.111" r="3.331"/>
		<path class="st1" d="M29.197,24.476c0.623,0,1.128-0.505,1.128-1.128c0-0.623-1.128-2.848-1.128-2.848s-1.128,2.224-1.128,2.848
			S28.574,24.476,29.197,24.476z"/>
		<path class="st1" d="M28.068,32.875c0,0.623,1.128,2.848,1.128,2.848s1.128-2.224,1.128-2.848s-0.505-1.128-1.128-1.128
			C28.574,31.747,28.068,32.252,28.068,32.875z"/>
		<path class="st1" d="M33.961,26.983c-0.623,0-1.128,0.505-1.128,1.128c0,0.623,0.505,1.128,1.128,1.128s2.848-1.128,2.848-1.128
			S34.584,26.983,33.961,26.983z"/>
		<path class="st1" d="M25.561,28.111c0-0.623-0.505-1.128-1.128-1.128c-0.623,0-2.848,1.128-2.848,1.128s2.224,1.128,2.848,1.128
			C25.056,29.24,25.561,28.735,25.561,28.111z"/>
		<path class="st1" d="M33.363,25.541c0.441-0.441,1.215-2.811,1.215-2.811s-2.371,0.775-2.811,1.216
			c-0.441,0.441-0.441,1.155,0,1.595C32.208,25.981,32.923,25.981,33.363,25.541z"/>
		<path class="st1" d="M25.03,30.682c-0.441,0.441-1.216,2.811-1.216,2.811s2.371-0.775,2.811-1.216
			c0.441-0.441,0.441-1.155,0-1.595C26.185,30.242,25.471,30.242,25.03,30.682z"/>
		<path class="st1" d="M34.579,33.494c0,0-0.775-2.371-1.216-2.811c-0.441-0.441-1.155-0.441-1.595,0
			c-0.441,0.441-0.441,1.155,0,1.595C32.208,32.719,34.579,33.494,34.579,33.494z"/>
		<path class="st1" d="M26.626,25.541c0.441-0.441,0.441-1.155,0-1.595c-0.441-0.441-2.811-1.216-2.811-1.216
			s0.775,2.371,1.216,2.811C25.471,25.981,26.185,25.981,26.626,25.541z"/>
	</g>
</g>
</svg>
