<?xml version="1.0" encoding="utf-8"?>
<!-- Generator: Adobe Illustrator 24.0.0, SVG Export Plug-In . SVG Version: 6.00 Build 0)  -->
<svg version="1.1" id="Layer_1" xmlns="http://www.w3.org/2000/svg" xmlns:xlink="http://www.w3.org/1999/xlink" x="0px" y="0px"
	 viewBox="0 0 65 65" style="enable-background:new 0 0 65 65;" xml:space="preserve">
<style type="text/css">
	.st0{fill:#2560D4;}
	.st1{fill:#FFFFFF;}
</style>
<circle class="st0" cx="32.5" cy="32.5" r="32.5"/>
<g>
	<path class="st1" d="M44.477,24.523v-0.988c0-1.57-1.193-2.906-2.758-3.027c-1.76-0.136-3.23,1.263-3.23,3.008v3.018h-5.006v-3.004
		c0-0.479,0.33-0.906,0.801-0.999c0.645-0.128,1.211,0.363,1.211,0.986v1.006h2.012v-0.955c0-1.608-1.251-2.963-2.857-3.034
		c-1.716-0.076-3.131,1.292-3.131,2.991v11.154c-0.458-0.107-0.928-0.157-1.399-0.15c-2.399,0-2.399,0.999-4.797,0.999
		s-2.399-0.999-4.798-0.999v3.993c2.395,0,2.395,0.998,4.791,0.998s2.395-0.998,4.791-0.998s2.395,0.998,4.791,0.998
		c2.395,0,2.395-0.998,4.791-0.998s2.395,0.998,4.791,0.998v-3.994c-2.086,0-2.349-0.76-3.977-0.951V23.546
		c0-0.48,0.331-0.907,0.802-0.999c0.645-0.125,1.209,0.361,1.209,0.978v0.998H44.477z M38.488,28.547v2.012h-5.006v-2.012H38.488z
		 M33.482,35.368v-2.844h5.006v2.103c-1.298,0.257-1.687,0.892-3.604,0.892C34.413,35.525,33.942,35.474,33.482,35.368z"/>
	<path class="st1" d="M34.895,40.508c-2.395,0-2.395-0.998-4.791-0.998s-2.395,0.998-4.791,0.998s-2.395-0.998-4.791-0.998v4.99
		h23.953v-3.992c-2.395,0-2.395-0.998-4.791-0.998S37.291,40.508,34.895,40.508L34.895,40.508z"/>
</g>
</svg>
