<?xml version="1.0" encoding="utf-8"?>
<!-- Generator: Adobe Illustrator 24.0.0, SVG Export Plug-In . SVG Version: 6.00 Build 0)  -->
<svg version="1.1" id="Layer_1" xmlns="http://www.w3.org/2000/svg" xmlns:xlink="http://www.w3.org/1999/xlink" x="0px" y="0px"
	 viewBox="0 0 65 65" style="enable-background:new 0 0 65 65;" xml:space="preserve">
<style type="text/css">
	.st0{fill:#2560D4;}
	.st1{fill:#FFFFFF;}
</style>
<circle class="st0" cx="32.5" cy="32.5" r="32.5"/>
<g>
	<g>
		<path class="st1" d="M32.5,33.606c1.603,0,5.373-1.93,5.373-6.553c0-0.645-0.016-1.268-0.069-1.857
			c-0.087-1.158-0.325-2.185-0.915-2.972C36.131,21.154,34.805,20.5,32.5,20.5c-2.305,0-3.631,0.653-4.388,1.724
			c-0.591,0.787-0.829,1.814-0.916,2.973c-0.053,0.589-0.069,1.211-0.069,1.856C27.127,31.676,30.897,33.606,32.5,33.606z
			 M34.254,22.901c-0.156,0.395-0.235,0.593-0.391,0.989c-1.011-0.286-1.714-0.286-2.725,0c-0.157-0.395-0.235-0.593-0.392-0.989
			C32.01,22.518,32.99,22.518,34.254,22.901z M27.926,26.05c0.062,0.135,0.325,0.656,0.732,0.705
			c0.468,0.056,1.245-1.657,3.842-1.661c2.597,0.004,3.374,1.717,3.842,1.661c0.407-0.049,0.67-0.569,0.732-0.705
			c0.013,0.332,0.017,0.668,0.017,1.003c0,2.26-0.998,3.66-1.835,4.437c-1.055,0.979-2.226,1.334-2.756,1.334
			c-0.53,0-1.701-0.355-2.756-1.334c-0.837-0.777-1.835-2.177-1.835-4.437C27.909,26.718,27.914,26.382,27.926,26.05z"/>
		<path class="st1" d="M42.449,40.334c-0.274-1.701-0.837-3.892-1.967-4.671c-0.772-0.532-3.463-1.97-4.613-2.584l-0.019-0.01
			c-0.132-0.07-0.293-0.055-0.411,0.037c-0.602,0.472-1.261,0.79-1.958,0.945c-0.123,0.028-0.225,0.115-0.27,0.233L32.5,36.16
			l-0.711-1.875c-0.045-0.118-0.146-0.206-0.27-0.233c-0.699-0.156-1.358-0.474-1.96-0.947c-0.117-0.092-0.278-0.106-0.409-0.036
			c-1.136,0.607-3.86,2.074-4.629,2.592c-1.301,0.876-1.869,4.047-1.97,4.674c-0.01,0.062-0.004,0.126,0.017,0.185
			c0.028,0.078,0.458,1.192,2.609,2.088c0.124-0.156,0.289-0.275,0.475-0.341c-0.231-0.082-0.431-0.243-0.559-0.458
			c-0.191-0.321-0.198-0.724-0.019-1.051c0.551-1.01,1.608-1.638,2.758-1.639c1.07,0,2.039,0.532,2.615,1.395h4.105
			c0.113-0.168,0.242-0.326,0.387-0.471c0.593-0.595,1.382-0.923,2.222-0.924h0.001h0.001c1.149,0,2.207,0.625,2.76,1.631
			c0.179,0.327,0.173,0.729-0.016,1.051c-0.127,0.216-0.327,0.377-0.558,0.459c0.189,0.067,0.357,0.187,0.482,0.346
			c2.146-0.895,2.575-2.007,2.603-2.085C42.453,40.46,42.459,40.396,42.449,40.334z"/>
		<path class="st1" d="M38.995,43.171h0.053l-2.051,0.003c-0.036-0.086-0.106-0.326-0.107-0.898
			c-0.001-0.572,0.068-0.812,0.104-0.899h2.015c0,0,0.091-0.014,0.115-0.055c0.024-0.041,0.025-0.091,0.002-0.133
			c-0.391-0.711-1.137-1.153-1.952-1.153c-0.594,0.001-1.151,0.233-1.571,0.653c-0.216,0.217-0.491,0.753-0.491,0.753h-5.228
			c0,0-1.129-1.407-2.066-1.407c-0.812,0.001-1.559,0.445-1.948,1.159c-0.023,0.041-0.022,0.092,0.002,0.133
			c0.024,0.041,0.115,0.049,0.115,0.049h-0.036l2.052-0.003c0.037,0.086,0.106,0.326,0.107,0.899
			c0.001,0.572-0.068,0.812-0.104,0.899l-1.999,0.003c-0.046,0-0.089,0.025-0.113,0.065c-0.024,0.04-0.024,0.089-0.002,0.13
			c0.384,0.698,1.117,1.131,1.912,1.131h0.024c0.592-0.001,1.148-0.232,1.566-0.652c0.215-0.216,0.38-0.469,0.489-0.744h5.234
			c0.327,0.816,1.126,1.395,2.057,1.396c0,0,0.026,0,0.026,0c0.795-0.001,1.527-0.436,1.909-1.135
			c0.022-0.041,0.021-0.09-0.002-0.13C39.084,43.195,39.041,43.171,38.995,43.171z"/>
	</g>
</g>
</svg>
