<?xml version="1.0" encoding="utf-8"?>
<!-- Generator: Adobe Illustrator 24.0.0, SVG Export Plug-In . SVG Version: 6.00 Build 0)  -->
<svg version="1.1" id="Layer_1" xmlns="http://www.w3.org/2000/svg" xmlns:xlink="http://www.w3.org/1999/xlink" x="0px" y="0px"
	 viewBox="0 0 65 65" style="enable-background:new 0 0 65 65;" xml:space="preserve">
<style type="text/css">
	.st0{fill:#2560D4;}
	.st1{fill:#FFFFFF;}
</style>
<circle class="st0" cx="32.5" cy="32.5" r="32.5"/>
<g>
	<g>
		<g>
			<path class="st1" d="M35.708,34.842c0.011,0.001,0.022,0.001,0.033,0.001c0.421,0,0.771-0.332,0.788-0.757
				c0.079-1.922,0.175-5.268,0.042-8.138c0.032-0.086,0.019-0.52-0.033-0.626c-0.129-2.141-0.402-3.919-0.932-4.472
				C35.39,20.624,35.111,20.5,34.82,20.5c-1.734,0-2.304,2.042-2.368,3.248c-0.023,0.435,0.311,0.807,0.747,0.83
				c0.445,0.024,0.807-0.312,0.83-0.747c0.022-0.423,0.205-1.33,0.544-1.643c0.163,0.486,0.279,1.452,0.357,2.694h-5.174
				c-0.139-1.942-0.41-3.519-0.904-4.033c-0.216-0.225-0.495-0.349-0.786-0.349c-1.734,0-2.304,2.042-2.367,3.248
				c-0.023,0.435,0.312,0.807,0.747,0.83c0.441,0.024,0.807-0.312,0.83-0.747c0.022-0.423,0.205-1.33,0.544-1.643
				c0.321,0.966,0.47,3.8,0.474,7.009c-0.03,0.082-0.03,0.442-0.001,0.524c-0.005,1.418-0.037,2.891-0.095,4.299
				c-0.018,0.436,0.32,0.804,0.757,0.822c0.011,0.001,0.022,0.001,0.033,0.001c0.421,0,0.771-0.332,0.789-0.757
				c0.041-0.989,0.086-2.353,0.101-3.836h5.166c-0.011,1.253-0.042,2.537-0.093,3.77C34.934,34.456,35.272,34.824,35.708,34.842z
				 M29.9,28.716c-0.004-0.734-0.017-1.473-0.043-2.191h5.12c0.023,0.691,0.037,1.425,0.042,2.191H29.9z"/>
			<path class="st1" d="M46.708,34.909c-0.063-0.183-0.654-1.814-1.954-2.842c-1.554-1.23-4.192-2.141-7.346-2.602
				c0.001,0.73-0.007,1.446-0.018,2.12c2.644,0.413,4.836,1.16,6.06,2.13c0.677,0.536,1.129,1.465,1.273,1.881
				c0.074,0.214,0.111,0.434,0.111,0.653c0,1.605-1.878,2.911-4.188,2.911c-0.534,0-1.055-0.071-1.547-0.21
				c-0.776-0.22-2.166-0.476-3.533-0.476c-0.226,0-0.449,0.007-0.664,0.023c-0.74,0.052-1.507,0.079-2.28,0.079c0,0,0,0,0,0
				c-0.805,0-1.606-0.029-2.379-0.085c-0.239-0.017-0.486-0.026-0.738-0.026c-1.169,0-2.573,0.187-3.579,0.478
				c-0.499,0.145-1.027,0.218-1.57,0.218c-2.308,0-4.187-1.306-4.187-2.911c0-0.3,0.068-0.597,0.203-0.882
				c0.229-0.483,1.124-1.523,2.005-2.052c1.22-0.733,3.018-1.307,5.111-1.667c0.007-0.452,0.013-0.904,0.015-1.351
				c-0.032-0.125-0.048-0.25-0.048-0.372c0-0.133,0.018-0.269,0.056-0.403c-0.004-0.004-0.004-0.004-0.007-0.008
				c-2.512,0.398-4.687,1.085-6.209,2c-1.228,0.737-2.421,2.108-2.822,2.954c-0.261,0.551-0.395,1.131-0.403,1.728
				c-0.249,1.184-0.629,4.046,0.892,6.107c1.049,1.422,2.755,2.157,5.08,2.187l19.517,0.01l0.072-0.013
				c1.282-0.237,2.238-0.882,2.839-1.918c0.992-1.708,0.729-4.097,0.401-5.627c0.038-0.227,0.067-0.456,0.067-0.691
				C46.935,35.795,46.859,35.344,46.708,34.909z"/>
		</g>
	</g>
</g>
</svg>
