<?xml version="1.0" encoding="utf-8"?>
<!-- Generator: Adobe Illustrator 24.0.0, SVG Export Plug-In . SVG Version: 6.00 Build 0)  -->
<svg version="1.1" id="Layer_1" xmlns="http://www.w3.org/2000/svg" xmlns:xlink="http://www.w3.org/1999/xlink" x="0px" y="0px"
	 viewBox="0 0 55 41.503" style="enable-background:new 0 0 55 41.503;" xml:space="preserve">
<style type="text/css">
	.st0{fill:#2560D4;}
	.st1{fill:#FFFFFF;}
</style>
<g>
	<g>
		<g>
			<polygon class="st0" points="6.164,0 1.393,0 4.514,3.121 7.635,6.242 47.478,6.242 50.599,3.121 53.72,0 48.819,0 			"/>
			<polygon class="st0" points="6.242,33.901 6.242,7.583 3.121,4.462 0,1.341 0,6.112 0,35.242 0,40.143 3.121,37.022 			"/>
			<polygon class="st0" points="47.348,35.261 7.765,35.261 4.644,38.382 1.523,41.503 6.164,41.503 48.819,41.503 53.59,41.503 
				50.469,38.382 			"/>
			<polygon class="st0" points="48.758,7.713 48.758,33.771 51.879,36.892 55,40.013 55,35.242 55,6.112 55,1.471 51.879,4.592 			
				"/>
		</g>
	</g>
</g>
</svg>
