<?xml version="1.0" encoding="utf-8"?>
<!-- Generator: Adobe Illustrator 24.0.0, SVG Export Plug-In . SVG Version: 6.00 Build 0)  -->
<svg version="1.1" id="Layer_1" xmlns="http://www.w3.org/2000/svg" xmlns:xlink="http://www.w3.org/1999/xlink" x="0px" y="0px"
	 viewBox="0 0 36 18" style="enable-background:new 0 0 36 18;" xml:space="preserve">
<style type="text/css">
	.st0{fill:#FFFFFF;}
	.st1{fill:#2560D4;}
</style>
<g>
	<g>
		<path class="st1" d="M25.588,16.59c-0.413,0.301-0.413,0.751,0,1.128c0.331,0.376,0.827,0.376,1.24,0l8.928-8.116
			c0.083-0.15,0.248-0.376,0.248-0.601l0,0l0,0c0-0.226-0.165-0.451-0.413-0.676l-8.763-8.042c-0.331-0.376-0.827-0.376-1.24,0
			c-0.413,0.301-0.413,0.751,0,1.128l7.44,6.764H0.905C0.409,8.174-0.004,8.55-0.004,9s0.413,0.827,0.909,0.827h32.122L25.588,16.59
			z"/>
	</g>
</g>
</svg>
