<?xml version="1.0" encoding="utf-8"?>
<!-- Generator: Adobe Illustrator 24.0.0, SVG Export Plug-In . SVG Version: 6.00 Build 0)  -->
<svg version="1.1" id="Layer_1" xmlns="http://www.w3.org/2000/svg" xmlns:xlink="http://www.w3.org/1999/xlink" x="0px" y="0px"
	 viewBox="0 0 52 23" style="enable-background:new 0 0 52 23;" xml:space="preserve">
<style type="text/css">
	.st0{fill:#FFFFFF;}
	.st1{fill:#FAFAFA;}
	.st2{fill:#2560D4;}
</style>
<g>
	<g>
		<path class="st2" d="M3.82,12.562h47.012c0.637,0,1.167-0.483,1.167-1.061c0-0.578-0.531-1.061-1.167-1.061H3.82l9.551-8.683
			c0.531-0.483,0.531-1.061,0-1.448c-0.531-0.483-1.167-0.483-1.592,0L0.531,10.632C0.212,10.922,0,11.211,0,11.501l0,0l0,0
			c0,0.29,0.212,0.578,0.318,0.772L11.78,22.691c0.531,0.483,1.167,0.483,1.592,0c0.531-0.483,0.531-1.061,0-1.448L3.82,12.562z"/>
	</g>
</g>
</svg>
