<?xml version="1.0" encoding="utf-8"?>
<!-- Generator: Adobe Illustrator 24.0.0, SVG Export Plug-In . SVG Version: 6.00 Build 0)  -->
<svg version="1.1" id="Layer_1" xmlns="http://www.w3.org/2000/svg" xmlns:xlink="http://www.w3.org/1999/xlink" x="0px" y="0px"
	 viewBox="0 0 52 23" style="enable-background:new 0 0 52 23;" xml:space="preserve">
<style type="text/css">
	.st0{fill:#FFFFFF;}
	.st1{fill:#FAFAFA;}
	.st2{fill:#2560D4;}
</style>
<g>
	<g>
		<path class="st2" d="M38.629,21.244c-0.531,0.386-0.531,0.965,0,1.448c0.424,0.483,1.061,0.483,1.592,0l11.461-10.419
			C51.788,12.079,52,11.79,52,11.501l0,0l0,0c0-0.29-0.212-0.578-0.531-0.868L40.22,0.309c-0.424-0.483-1.061-0.483-1.592,0
			c-0.531,0.386-0.531,0.965,0,1.448l9.551,8.683H1.167C0.531,10.439,0,10.922,0,11.501c0,0.578,0.531,1.061,1.167,1.061H48.18
			L38.629,21.244z"/>
	</g>
</g>
</svg>
