<?xml version="1.0" encoding="utf-8"?>
<!-- Generator: Adobe Illustrator 24.0.0, SVG Export Plug-In . SVG Version: 6.00 Build 0)  -->
<svg version="1.1" id="Layer_1" xmlns="http://www.w3.org/2000/svg" xmlns:xlink="http://www.w3.org/1999/xlink" x="0px" y="0px"
	 viewBox="0 0 69.64 50" style="enable-background:new 0 0 69.64 50;" xml:space="preserve">
<style type="text/css">
	.st0{fill:#FFFFFF;}
</style>
<g>
	<g>
		<path class="st0" d="M69.359,18.302c-1.202-2.58-4.329-2.804-5.917-0.939l-3.629,4.256l-6.684,1.093h-0.003
			c-0.959,0-1.871,0.42-2.493,1.15l-8.34,9.777H13.908c-0.788,0-1.55,0.284-2.146,0.8l-10.63,9.205
			c-1.628,1.409-1.53,4.071,0.485,5.314c1.215,0.75,2.802,0.511,3.881-0.423l9.63-8.339h35.104l10.338,8.952
			C61.23,49.719,62.045,50,62.855,50c1.405,0,2.8-0.844,3.361-2.472c0.447-1.3-0.018-2.745-1.058-3.645l-8.718-7.549l12.34-14.466
			C69.622,20.88,69.907,19.478,69.359,18.302z"/>
		<circle class="st0" cx="27.934" cy="15.869" r="6.945"/>
		<path class="st0" d="M27.934,8.289c1.299,0,2.353-1.053,2.353-2.353S27.934,0,27.934,0s-2.353,4.638-2.353,5.937
			C25.581,7.236,26.634,8.289,27.934,8.289z"/>
		<path class="st0" d="M25.581,25.8c0,1.299,2.353,5.937,2.353,5.937s2.353-4.638,2.353-5.937c0-1.299-1.053-2.353-2.353-2.353
			C26.634,23.449,25.581,24.501,25.581,25.8z"/>
		<path class="st0" d="M37.866,13.516c-1.299,0-2.353,1.053-2.353,2.353s1.053,2.353,2.353,2.353c1.299,0,5.937-2.353,5.937-2.353
			S39.165,13.516,37.866,13.516z"/>
		<path class="st0" d="M20.354,15.869c0-1.299-1.053-2.353-2.353-2.353s-5.937,2.353-5.937,2.353s4.638,2.353,5.937,2.353
			S20.354,17.168,20.354,15.869z"/>
		<path class="st0" d="M36.62,10.509c0.919-0.919,2.534-5.861,2.534-5.861s-4.942,1.616-5.861,2.535
			c-0.919,0.919-0.919,2.408,0,3.326C34.211,11.428,35.701,11.428,36.62,10.509z"/>
		<path class="st0" d="M19.247,21.228c-0.919,0.919-2.535,5.861-2.535,5.861s4.942-1.616,5.861-2.535
			c0.919-0.919,0.919-2.408,0-3.326C21.655,20.309,20.166,20.309,19.247,21.228z"/>
		<path class="st0" d="M39.154,27.09c0,0-1.616-4.942-2.535-5.861c-0.919-0.919-2.408-0.919-3.326,0
			c-0.919,0.919-0.919,2.408,0,3.326C34.211,25.474,39.154,27.09,39.154,27.09z"/>
		<path class="st0" d="M22.574,10.509c0.919-0.919,0.919-2.408,0-3.326c-0.919-0.919-5.861-2.535-5.861-2.535
			s1.616,4.942,2.535,5.861C20.166,11.428,21.655,11.428,22.574,10.509z"/>
	</g>
</g>
</svg>
