<?xml version="1.0" encoding="utf-8"?>
<!-- Generator: Adobe Illustrator 24.0.0, SVG Export Plug-In . SVG Version: 6.00 Build 0)  -->
<svg version="1.1" id="Layer_1" xmlns="http://www.w3.org/2000/svg" xmlns:xlink="http://www.w3.org/1999/xlink" x="0px" y="0px"
	 viewBox="0 0 49.903 50" style="enable-background:new 0 0 49.903 50;" xml:space="preserve">
<style type="text/css">
	.st0{fill:#FFFFFF;}
</style>
<g>
	<path class="st0" d="M49.903,8.382V6.325c0-3.27-2.486-6.054-5.746-6.305c-3.667-0.283-6.73,2.632-6.73,6.268v6.287H26.998V6.314
		c0-0.999,0.688-1.887,1.668-2.081c1.345-0.266,2.523,0.756,2.523,2.053v2.096h4.094V6.354c0-3.405-2.708-6.247-6.113-6.288
		c-3.453-0.042-6.265,2.767-6.265,6.237v23.21c-0.955-0.222-1.933-0.327-2.914-0.312c-4.997,0-4.997,2.082-9.995,2.082
		S4.998,29.2,0,29.2v8.319c4.99,0,4.99,2.079,9.981,2.079s4.99-2.079,9.981-2.079s4.99,2.079,9.981,2.079s4.99-2.079,9.981-2.079
		s4.99,2.079,9.981,2.079v-8.321c-4.347,0-4.893-1.584-8.285-1.981V6.323c0-1.069,0.798-1.998,1.864-2.092
		c1.213-0.107,2.23,0.861,2.23,2.071v2.079H49.903z M37.427,16.667v4.191H26.998v-4.191H37.427z M26.998,30.975v-5.926h10.429v4.38
		c-2.705,0.535-3.515,1.858-7.509,1.858C28.936,31.301,27.955,31.196,26.998,30.975z"/>
	<path class="st0" d="M29.942,41.683c-4.99,0-4.99-2.079-9.981-2.079s-4.99,2.079-9.981,2.079S4.99,39.604,0,39.604V50h49.903
		v-8.317c-4.99,0-4.99-2.079-9.981-2.079S34.932,41.683,29.942,41.683L29.942,41.683z"/>
</g>
</svg>
