<?xml version="1.0" encoding="utf-8"?>
<!-- Generator: Adobe Illustrator 24.0.0, SVG Export Plug-In . SVG Version: 6.00 Build 0)  -->
<svg version="1.1" id="Layer_1" xmlns="http://www.w3.org/2000/svg" xmlns:xlink="http://www.w3.org/1999/xlink" x="0px" y="0px"
	 viewBox="0 0 61.101 50" style="enable-background:new 0 0 61.101 50;" xml:space="preserve">
<style type="text/css">
	.st0{fill:#FFFFFF;}
</style>
<g>
	<g>
		<g>
			<path class="st0" d="M37.242,29.879c0.024,0.001,0.046,0.001,0.069,0.001c0.877,0,1.606-0.692,1.643-1.576
				c0.164-4.004,0.364-10.976,0.087-16.955c0.067-0.179,0.041-1.083-0.069-1.305c-0.269-4.46-0.838-8.165-1.942-9.317
				C36.579,0.257,35.997,0,35.391,0c-3.612,0-4.8,4.253-4.933,6.766c-0.047,0.907,0.649,1.681,1.557,1.729
				c0.926,0.049,1.681-0.65,1.729-1.556c0.046-0.881,0.427-2.77,1.133-3.423c0.339,1.013,0.581,3.025,0.744,5.612H24.843
				c-0.289-4.045-0.854-7.331-1.883-8.402C22.511,0.257,21.93,0,21.323,0c-3.612,0-4.799,4.253-4.932,6.766
				c-0.047,0.907,0.65,1.681,1.556,1.729c0.919,0.049,1.682-0.65,1.729-1.556c0.046-0.881,0.428-2.77,1.134-3.423
				c0.669,2.013,0.979,7.916,0.987,14.602c-0.062,0.172-0.062,0.921-0.001,1.092c-0.011,2.954-0.077,6.024-0.199,8.956
				c-0.038,0.908,0.668,1.675,1.577,1.712c0.022,0.001,0.046,0.001,0.068,0.001c0.877,0,1.606-0.692,1.643-1.576
				c0.085-2.059,0.179-4.902,0.211-7.992h10.762c-0.024,2.611-0.087,5.286-0.193,7.855C35.629,29.075,36.334,29.841,37.242,29.879z
				 M25.14,17.117c-0.008-1.529-0.036-3.07-0.09-4.564h10.666c0.048,1.439,0.076,2.968,0.087,4.564
				C35.803,17.117,25.14,17.117,25.14,17.117z"/>
			<path class="st0" d="M60.151,30.018c-0.131-0.381-1.362-3.779-4.071-5.921c-3.237-2.562-8.733-4.46-15.304-5.42
				c0.002,1.521-0.014,3.012-0.038,4.416c5.508,0.861,10.074,2.417,12.625,4.438c1.41,1.116,2.351,3.051,2.651,3.92
				c0.154,0.446,0.232,0.903,0.232,1.36c0,3.345-3.913,6.065-8.724,6.065c-1.112,0-2.197-0.148-3.224-0.438
				c-1.617-0.457-4.512-0.991-7.361-0.991c-0.471,0-0.934,0.015-1.383,0.047c-1.542,0.108-3.139,0.164-4.75,0.164
				c-0.001,0-0.001,0-0.001,0c-1.678,0-3.347-0.061-4.957-0.177c-0.498-0.036-1.012-0.053-1.537-0.053
				c-2.435,0-5.361,0.39-7.456,0.997c-1.041,0.301-2.141,0.453-3.272,0.453c-4.809,0-8.723-2.72-8.723-6.065
				c0-0.624,0.142-1.243,0.423-1.837c0.477-1.007,2.342-3.173,4.176-4.276c2.542-1.527,6.288-2.724,10.648-3.473
				c0.016-0.942,0.027-1.884,0.031-2.815c-0.066-0.261-0.099-0.52-0.099-0.775c0-0.278,0.038-0.559,0.116-0.84
				c-0.008-0.009-0.007-0.008-0.015-0.017c-5.234,0.828-9.765,2.261-12.936,4.166c-2.558,1.536-5.043,4.391-5.878,6.155
				C0.78,30.248,0.501,31.457,0.484,32.7c-0.518,2.467-1.311,8.429,1.858,12.723c2.186,2.962,5.739,4.494,10.583,4.557L53.585,50
				l0.15-0.027c2.671-0.494,4.663-1.838,5.915-3.996c2.068-3.559,1.518-8.535,0.836-11.722c0.08-0.472,0.139-0.95,0.139-1.439
				C60.624,31.865,60.465,30.926,60.151,30.018z"/>
		</g>
	</g>
</g>
</svg>
