<?xml version="1.0" encoding="utf-8"?>
<!-- Generator: Adobe Illustrator 24.0.0, SVG Export Plug-In . SVG Version: 6.00 Build 0)  -->
<svg version="1.1" id="Layer_1" xmlns="http://www.w3.org/2000/svg" xmlns:xlink="http://www.w3.org/1999/xlink" x="0px" y="0px"
	 viewBox="0 0 41.527 50" style="enable-background:new 0 0 41.527 50;" xml:space="preserve">
<style type="text/css">
	.st0{fill:#FFFFFF;}
</style>
<g>
	<g>
		<path class="st0" d="M20.763,27.339c3.345,0,11.208-4.025,11.208-13.67c0-1.345-0.033-2.645-0.144-3.873
			c-0.182-2.417-0.677-4.558-1.909-6.199C28.338,1.364,25.572,0,20.763,0c-4.808,0-7.573,1.363-9.154,3.596
			c-1.233,1.642-1.728,3.784-1.91,6.201c-0.111,1.228-0.143,2.527-0.143,3.872C9.555,23.314,17.419,27.339,20.763,27.339z
			 M24.422,5.008c-0.326,0.825-0.49,1.238-0.817,2.062c-2.108-0.596-3.576-0.596-5.684,0c-0.326-0.825-0.49-1.237-0.817-2.062
			C19.742,4.21,21.785,4.21,24.422,5.008z M11.223,11.578c0.129,0.282,0.678,1.368,1.527,1.47c0.976,0.117,2.596-3.457,8.014-3.466
			c5.417,0.009,7.038,3.583,8.014,3.466c0.849-0.102,1.398-1.188,1.527-1.47c0.026,0.692,0.036,1.393,0.036,2.091
			c0,4.714-2.082,7.635-3.828,9.256c-2.2,2.042-4.643,2.783-5.748,2.783s-3.548-0.741-5.748-2.783
			c-1.747-1.62-3.828-4.541-3.828-9.256C11.187,12.971,11.197,12.27,11.223,11.578z"/>
		<path class="st0" d="M41.517,41.31c-0.571-3.549-1.746-8.12-4.102-9.744c-1.609-1.11-7.224-4.11-9.622-5.391l-0.039-0.021
			c-0.276-0.147-0.612-0.116-0.858,0.077c-1.255,0.984-2.629,1.648-4.085,1.972c-0.257,0.057-0.469,0.24-0.562,0.487l-1.484,3.912
			l-1.484-3.912c-0.093-0.247-0.305-0.429-0.562-0.487c-1.457-0.325-2.833-0.989-4.089-1.975c-0.245-0.192-0.579-0.221-0.853-0.075
			c-2.369,1.266-8.053,4.327-9.655,5.407C1.406,33.388,0.22,40.002,0.01,41.31c-0.021,0.13-0.009,0.262,0.035,0.386
			C0.102,41.858,1,44.182,5.487,46.051c0.259-0.326,0.603-0.573,0.991-0.712c-0.481-0.171-0.899-0.506-1.167-0.956
			c-0.398-0.67-0.413-1.511-0.04-2.193c1.15-2.106,3.354-3.416,5.753-3.419c2.231,0,4.254,1.109,5.455,2.911h8.563
			c0.235-0.351,0.505-0.679,0.807-0.983c1.238-1.241,2.884-1.926,4.636-1.928h0.001h0.001c2.397,0,4.603,1.303,5.758,3.402
			c0.374,0.681,0.362,1.52-0.034,2.193c-0.266,0.45-0.683,0.786-1.163,0.958c0.394,0.14,0.744,0.391,1.005,0.722
			c4.476-1.868,5.372-4.187,5.429-4.349C41.526,41.572,41.538,41.439,41.517,41.31z"/>
		<path class="st0" d="M34.312,47.227h0.027l-4.121,0.006c-0.073-0.173-0.213-0.655-0.215-1.804
			c-0.002-1.149,0.137-1.632,0.21-1.806h4.128c0,0,0.19-0.104,0.24-0.189c0.05-0.085,0.052-0.19,0.004-0.277
			c-0.816-1.483-2.373-2.404-4.072-2.404c-1.239,0.002-2.402,0.486-3.276,1.363c-0.451,0.452-1.024,1.645-1.024,1.645H15.308
			c0,0-2.356-3.008-4.309-3.008c-1.694,0.002-3.251,0.929-4.064,2.418c-0.047,0.087-0.045,0.192,0.005,0.276
			c0.05,0.085,0.24,0.175,0.24,0.175h0.008l4.122-0.006c0.073,0.174,0.213,0.655,0.215,1.805c0.002,1.15-0.137,1.632-0.21,1.806
			l-4.096,0.006c-0.097,0-0.186,0.052-0.236,0.135c-0.049,0.083-0.051,0.187-0.004,0.272c0.8,1.456,2.329,2.36,3.989,2.36h0.051
			c1.235-0.002,2.395-0.485,3.267-1.359c0.449-0.451,0.792-0.978,1.02-1.552h10.918C26.907,48.792,28.573,50,30.516,50
			c0,0,0.054,0,0.054,0c1.659-0.002,3.185-0.91,3.981-2.368c0.046-0.085,0.045-0.188-0.005-0.271
			C34.498,47.278,34.408,47.227,34.312,47.227z"/>
	</g>
</g>
</svg>
