<?xml version="1.0" encoding="utf-8"?>
<!-- Generator: Adobe Illustrator 24.0.0, SVG Export Plug-In . SVG Version: 6.00 Build 0)  -->
<svg version="1.1" id="Layer_1" xmlns="http://www.w3.org/2000/svg" xmlns:xlink="http://www.w3.org/1999/xlink" x="0px" y="0px"
	 viewBox="0 0 65 65" style="enable-background:new 0 0 65 65;" xml:space="preserve">
<style type="text/css">
	.st0{fill:#FFFFFF;}
	.st1{fill:#2560D4;}
</style>
<g>
	<circle class="st0" cx="32.5" cy="32.5" r="32.5"/>
</g>
<g>
	<g>
		<path class="st1" d="M32.5,33.622c1.605,0,5.38-1.932,5.38-6.561c0-0.646-0.016-1.269-0.069-1.859
			c-0.087-1.16-0.325-2.188-0.916-2.976C36.136,21.155,34.808,20.5,32.5,20.5c-2.308,0-3.635,0.654-4.394,1.726
			c-0.592,0.788-0.83,1.816-0.917,2.976c-0.053,0.589-0.069,1.213-0.069,1.859C27.12,31.69,30.895,33.622,32.5,33.622z
			 M34.256,22.904c-0.157,0.396-0.235,0.594-0.392,0.99c-1.012-0.286-1.716-0.286-2.728,0c-0.157-0.396-0.235-0.594-0.392-0.99
			C32.01,22.521,32.99,22.521,34.256,22.904z M27.921,26.057c0.062,0.136,0.325,0.657,0.733,0.706
			c0.469,0.056,1.246-1.659,3.846-1.663c2.6,0.004,3.378,1.72,3.846,1.663c0.408-0.049,0.671-0.57,0.733-0.706
			c0.013,0.332,0.017,0.668,0.017,1.004c0,2.263-0.999,3.665-1.837,4.442c-1.056,0.98-2.229,1.336-2.759,1.336
			c-0.53,0-1.703-0.356-2.759-1.336c-0.838-0.778-1.837-2.18-1.837-4.442C27.904,26.726,27.908,26.39,27.921,26.057z"/>
		<path class="st1" d="M42.461,40.329c-0.274-1.703-0.838-3.897-1.969-4.677c-0.773-0.533-3.468-1.973-4.618-2.587l-0.019-0.01
			c-0.132-0.071-0.294-0.056-0.412,0.037c-0.602,0.472-1.262,0.791-1.961,0.947c-0.124,0.028-0.225,0.115-0.27,0.234L32.5,36.149
			l-0.712-1.878c-0.045-0.118-0.146-0.206-0.27-0.234c-0.699-0.156-1.36-0.475-1.963-0.948c-0.117-0.092-0.278-0.106-0.41-0.036
			c-1.137,0.608-3.865,2.077-4.634,2.595c-1.302,0.877-1.871,4.052-1.972,4.679c-0.01,0.062-0.004,0.126,0.017,0.185
			c0.028,0.078,0.458,1.193,2.612,2.09c0.124-0.156,0.29-0.275,0.476-0.342c-0.231-0.082-0.432-0.243-0.56-0.459
			c-0.191-0.322-0.198-0.725-0.019-1.052c0.552-1.011,1.61-1.64,2.761-1.641c1.071,0,2.042,0.532,2.618,1.397h4.11
			c0.113-0.169,0.242-0.326,0.387-0.472c0.594-0.596,1.384-0.924,2.225-0.926h0.001h0.001c1.151,0,2.209,0.625,2.763,1.633
			c0.18,0.327,0.174,0.73-0.016,1.052c-0.128,0.216-0.328,0.377-0.558,0.46c0.189,0.067,0.357,0.187,0.482,0.347
			c2.148-0.896,2.578-2.01,2.606-2.088C42.465,40.455,42.471,40.391,42.461,40.329z"/>
		<path class="st1" d="M39.003,43.169h0.053l-2.054,0.003c-0.036-0.086-0.106-0.327-0.107-0.899c-0.001-0.573,0.068-0.813,0.104-0.9
			h2.017c0,0,0.091,0.016,0.115-0.025c0.024-0.041,0.025-0.091,0.002-0.133c-0.392-0.712-1.139-1.154-1.954-1.154
			c-0.594,0.001-1.153,0.233-1.573,0.654c-0.216,0.217-0.491,0.724-0.491,0.724h-5.235c0,0-1.131-1.378-2.068-1.378
			c-0.813,0.001-1.56,0.446-1.951,1.161c-0.023,0.042-0.022,0.092,0.002,0.133s0.115,0.152,0.115,0.152h0.044l1.902-0.003
			c0.034,0.08,0.099,0.302,0.099,0.833c0.001,0.531-0.063,0.753-0.097,0.833l-1.93,0.003c-0.046,0-0.089,0.025-0.113,0.065
			c-0.024,0.04-0.024,0.09-0.002,0.13c0.384,0.699,1.118,1.133,1.915,1.133h0.025c0.593-0.001,1.15-0.233,1.568-0.652
			c0.216-0.216,0.38-0.47,0.49-0.745h5.24c0.328,0.817,1.127,1.397,2.06,1.397c0,0,0.026,0,0.026,0
			c0.796-0.001,1.529-0.437,1.911-1.137c0.022-0.041,0.021-0.09-0.002-0.13C39.092,43.193,39.049,43.169,39.003,43.169z"/>
	</g>
</g>
</svg>
