<?xml version="1.0" encoding="utf-8"?>
<!-- Generator: Adobe Illustrator 24.0.0, SVG Export Plug-In . SVG Version: 6.00 Build 0)  -->
<svg version="1.1" id="Layer_1" xmlns="http://www.w3.org/2000/svg" xmlns:xlink="http://www.w3.org/1999/xlink" x="0px" y="0px"
	 viewBox="0 0 65 65" style="enable-background:new 0 0 65 65;" xml:space="preserve">
<style type="text/css">
	.st0{fill:#FFFFFF;}
	.st1{fill:#2560D4;}
</style>
<g>
	<circle class="st0" cx="32.5" cy="32.5" r="32.5"/>
</g>
<g>
	<g>
		<g>
			<path class="st1" d="M35.712,34.908c0.011,0.001,0.022,0.001,0.033,0.001c0.423,0,0.774-0.334,0.792-0.76
				c0.079-1.931,0.176-5.293,0.042-8.176c0.033-0.087,0.02-0.522-0.033-0.629c-0.13-2.151-0.404-3.937-0.937-4.492
				c-0.217-0.226-0.497-0.351-0.79-0.351c-1.742,0-2.314,2.051-2.379,3.263c-0.023,0.437,0.313,0.811,0.751,0.834
				c0.447,0.024,0.811-0.313,0.834-0.75c0.022-0.425,0.206-1.336,0.546-1.651c0.163,0.488,0.28,1.459,0.359,2.706h-5.197
				c-0.139-1.95-0.412-3.535-0.908-4.051c-0.217-0.226-0.497-0.351-0.789-0.351c-1.742,0-2.314,2.051-2.378,3.263
				c-0.023,0.437,0.313,0.811,0.75,0.834c0.443,0.024,0.811-0.313,0.834-0.75c0.022-0.425,0.206-1.336,0.547-1.651
				c0.323,0.971,0.472,3.817,0.476,7.041c-0.03,0.083-0.03,0.444-0.001,0.527c-0.005,1.424-0.037,2.905-0.096,4.318
				c-0.018,0.438,0.322,0.808,0.76,0.826c0.011,0.001,0.022,0.001,0.033,0.001c0.423,0,0.775-0.334,0.792-0.76
				c0.041-0.993,0.086-2.364,0.102-3.854h5.189c-0.011,1.259-0.042,2.549-0.093,3.788C34.934,34.52,35.274,34.89,35.712,34.908z
				 M29.876,28.644c-0.004-0.737-0.017-1.48-0.043-2.201h5.143c0.023,0.694,0.037,1.431,0.042,2.201H29.876z"/>
			<path class="st1" d="M46.773,34.865c-0.063-0.184-0.657-1.822-1.963-2.855c-1.561-1.235-4.211-2.151-7.38-2.614
				c0.001,0.733-0.007,1.452-0.019,2.129c2.656,0.415,4.858,1.166,6.088,2.14c0.68,0.538,1.134,1.471,1.279,1.89
				c0.074,0.215,0.112,0.436,0.112,0.656c0,1.613-1.887,2.924-4.207,2.924c-0.536,0-1.059-0.071-1.554-0.211
				c-0.78-0.221-2.176-0.478-3.55-0.478c-0.227,0-0.451,0.007-0.667,0.023c-0.743,0.052-1.514,0.079-2.29,0.079c0,0,0,0,0,0
				c-0.809,0-1.614-0.029-2.39-0.086c-0.24-0.017-0.488-0.026-0.741-0.026c-1.174,0-2.585,0.188-3.595,0.481
				c-0.502,0.145-1.032,0.219-1.578,0.219c-2.319,0-4.206-1.312-4.206-2.924c0-0.301,0.069-0.6,0.204-0.886
				c0.23-0.486,1.129-1.53,2.014-2.062c1.226-0.736,3.032-1.313,5.134-1.674c0.008-0.454,0.013-0.908,0.015-1.357
				c-0.032-0.126-0.048-0.251-0.048-0.374c0-0.134,0.018-0.27,0.056-0.405c-0.004-0.004-0.004-0.004-0.007-0.008
				c-2.524,0.399-4.709,1.09-6.238,2.009c-1.233,0.741-2.432,2.117-2.835,2.968c-0.262,0.553-0.396,1.136-0.405,1.735
				c-0.25,1.189-0.632,4.065,0.896,6.135c1.054,1.428,2.767,2.167,5.103,2.197l19.606,0.01l0.072-0.013
				c1.288-0.238,2.248-0.886,2.852-1.927c0.997-1.716,0.732-4.116,0.403-5.653c0.039-0.228,0.067-0.458,0.067-0.694
				C47.002,35.755,46.925,35.302,46.773,34.865z"/>
		</g>
	</g>
</g>
</svg>
