<?xml version="1.0" encoding="utf-8"?>
<!-- Generator: Adobe Illustrator 24.0.0, SVG Export Plug-In . SVG Version: 6.00 Build 0)  -->
<svg version="1.1" id="Layer_1" xmlns="http://www.w3.org/2000/svg" xmlns:xlink="http://www.w3.org/1999/xlink" x="0px" y="0px"
	 viewBox="0 0 90 90" style="enable-background:new 0 0 90 90;" xml:space="preserve">
<style type="text/css">
	.st0{fill:#FFFFFF;}
	.st1{fill:#2560D4;}
</style>
<g>
	<g>
		<circle class="st1" cx="45" cy="45" r="45"/>
	</g>
	<g>
		<path class="st0" d="M55.047,57.152c0.131,0.401-0.381,0.834-0.743,0.572c-0.192-0.139-0.384-0.28-0.577-0.419
			c-2.789-2.026-5.576-4.051-8.365-6.077c-0.107,0.078-0.214,0.156-0.322,0.233c-2.874,2.088-5.747,4.174-8.621,6.263
			c-0.362,0.262-0.874-0.171-0.743-0.572c0.074-0.226,0.147-0.452,0.22-0.678c1.062-3.269,2.125-6.539,3.188-9.809
			c-0.079-0.057-0.159-0.115-0.239-0.173c-2.873-2.089-5.747-4.175-8.62-6.263c-0.387-0.282-0.283-0.943,0.256-0.943
			c0.238,0,0.475,0,0.713,0c3.43,0,6.859,0,10.288,0c0.033-0.102,0.066-0.205,0.1-0.306c1.091-3.354,2.18-6.709,3.27-10.064
			c0.014-0.167,0.121-0.288,0.262-0.356c0.019-0.01,0.038-0.019,0.057-0.026c0.034-0.012,0.068-0.019,0.103-0.025
			c0.027-0.004,0.054-0.009,0.082-0.009c0.038-0.001,0.072,0.004,0.109,0.012c0.027,0.005,0.052,0.01,0.077,0.019
			c0.026,0.009,0.05,0.02,0.074,0.034c0.138,0.069,0.242,0.189,0.255,0.354c0.066,0.202,0.132,0.405,0.197,0.607
			c1.057,3.254,2.115,6.508,3.172,9.763c0.115,0,0.23,0,0.345,0c3.552,0,7.103,0,10.655,0c0.54,0,0.644,0.661,0.256,0.943
			c-0.194,0.14-0.384,0.28-0.577,0.419c-2.761,2.006-5.523,4.012-8.282,6.018c0.038,0.117,0.076,0.234,0.114,0.352
			C52.853,50.395,53.949,53.774,55.047,57.152z M53.351,33.965c-0.31,0.954-0.619,1.906-0.929,2.86
			c-0.066,0.2,0.191,0.418,0.372,0.286c0.814-0.592,1.629-1.184,2.444-1.775c0.815,0.592,1.629,1.184,2.444,1.775
			c0.181,0.132,0.436-0.085,0.373-0.286c-0.311-0.954-0.619-1.907-0.929-2.86c0.801-0.582,1.601-1.163,2.403-1.745
			c0.194-0.141,0.141-0.471-0.129-0.471c-0.998,0-1.997,0-2.994,0c-0.304-0.936-0.608-1.873-0.913-2.81
			c-0.001-0.005-0.004-0.009-0.005-0.014c-0.001-0.005-0.003-0.009-0.004-0.014c0-0.001-0.001-0.001-0.001-0.002
			c-0.009-0.035-0.027-0.064-0.05-0.088c-0.004-0.004-0.007-0.006-0.01-0.009c-0.016-0.015-0.034-0.028-0.054-0.039
			c-0.013-0.007-0.025-0.014-0.04-0.019c-0.014-0.005-0.028-0.007-0.043-0.01c-0.015-0.002-0.03-0.005-0.046-0.005
			c-0.019-0.001-0.039,0.002-0.058,0.007c-0.01,0.002-0.02,0.004-0.03,0.007c-0.016,0.006-0.033,0.013-0.048,0.022
			c-0.018,0.01-0.034,0.022-0.048,0.035c-0.004,0.004-0.008,0.007-0.012,0.012c-0.024,0.025-0.042,0.055-0.051,0.09c0,0,0,0,0,0.001
			s-0.001,0.001-0.001,0.002c-0.002,0.009-0.008,0.017-0.009,0.027c-0.304,0.937-0.608,1.872-0.913,2.808c-0.998,0-1.997,0-2.994,0
			c-0.27,0-0.321,0.33-0.128,0.471C51.75,32.801,52.551,33.383,53.351,33.965z M62.772,47.856c-0.998,0-1.997,0-2.994,0
			c-0.304-0.937-0.608-1.873-0.913-2.81c-0.001-0.008-0.006-0.014-0.008-0.022c-0.001-0.002-0.001-0.004-0.002-0.007
			c0-0.001-0.001-0.001-0.001-0.001c-0.009-0.035-0.027-0.065-0.051-0.09c-0.004-0.003-0.007-0.006-0.009-0.009
			c-0.016-0.015-0.034-0.029-0.055-0.04c-0.013-0.007-0.025-0.014-0.04-0.018c-0.014-0.004-0.028-0.007-0.043-0.01
			c-0.015-0.002-0.03-0.005-0.046-0.005c-0.019-0.001-0.038,0.002-0.058,0.006c-0.01,0.002-0.02,0.004-0.03,0.007
			c-0.017,0.006-0.033,0.013-0.048,0.022c-0.018,0.009-0.033,0.022-0.048,0.035c-0.004,0.004-0.009,0.009-0.013,0.013
			c-0.023,0.025-0.04,0.053-0.049,0.087c-0.001,0.001-0.001,0.001-0.001,0.003c-0.001,0.005-0.004,0.011-0.005,0.016
			c-0.001,0.004-0.004,0.007-0.004,0.012c-0.304,0.937-0.609,1.873-0.913,2.81c-0.998,0-1.997,0-2.994,0
			c-0.27,0-0.321,0.33-0.128,0.47c0.801,0.582,1.601,1.163,2.402,1.746c-0.31,0.953-0.619,1.907-0.929,2.861
			c-0.066,0.199,0.191,0.416,0.372,0.285c0.814-0.591,1.629-1.184,2.444-1.776c0.815,0.592,1.629,1.184,2.444,1.776
			c0.181,0.133,0.436-0.085,0.373-0.285c-0.311-0.954-0.619-1.908-0.929-2.861c0.801-0.582,1.601-1.164,2.403-1.746
			C63.094,48.186,63.042,47.856,62.772,47.856z M49.523,56.097c-0.998,0-1.997,0-2.994,0c-0.304-0.937-0.608-1.873-0.913-2.81
			c-0.001-0.008-0.006-0.014-0.007-0.022c-0.001-0.002-0.001-0.004-0.002-0.007c0-0.001-0.001-0.001-0.001-0.001
			c-0.009-0.035-0.027-0.065-0.051-0.09c-0.003-0.004-0.006-0.006-0.009-0.009c-0.017-0.015-0.033-0.028-0.053-0.039
			c-0.014-0.008-0.027-0.015-0.043-0.02c-0.012-0.004-0.025-0.007-0.038-0.009c-0.017-0.003-0.033-0.006-0.051-0.005
			c-0.017,0-0.034,0.002-0.051,0.005c-0.013,0.002-0.025,0.005-0.038,0.009c-0.015,0.005-0.029,0.012-0.043,0.02
			c-0.02,0.01-0.036,0.023-0.052,0.038c-0.004,0.004-0.007,0.007-0.01,0.01c-0.024,0.025-0.04,0.054-0.05,0.088
			c0,0.001-0.001,0.001-0.001,0.002c-0.001,0.005-0.003,0.009-0.004,0.013c-0.001,0.006-0.004,0.009-0.005,0.015
			c-0.304,0.937-0.608,1.874-0.913,2.811c-0.998,0-1.997,0-2.994,0c-0.27,0-0.321,0.33-0.128,0.47
			c0.801,0.582,1.601,1.163,2.403,1.745c-0.31,0.954-0.619,1.908-0.929,2.861c-0.065,0.2,0.191,0.417,0.372,0.286
			c0.815-0.591,1.629-1.184,2.444-1.775c0.815,0.591,1.629,1.184,2.444,1.775c0.181,0.132,0.436-0.085,0.373-0.286
			c-0.311-0.952-0.619-1.907-0.929-2.861c0.801-0.582,1.601-1.163,2.403-1.745C49.845,56.428,49.792,56.097,49.523,56.097z
			 M35.68,48.324c0.194-0.14,0.142-0.47-0.128-0.47c-0.998,0-1.997,0-2.994,0c-0.304-0.936-0.608-1.872-0.912-2.808
			c-0.005-0.05-0.03-0.089-0.062-0.122c-0.002-0.003-0.004-0.004-0.007-0.007c-0.017-0.016-0.035-0.029-0.056-0.04
			c-0.014-0.007-0.027-0.014-0.041-0.019c-0.013-0.004-0.026-0.007-0.039-0.009c-0.017-0.003-0.033-0.006-0.051-0.005
			c-0.017,0-0.033,0.002-0.051,0.005c-0.014,0.002-0.026,0.005-0.039,0.009c-0.014,0.005-0.027,0.012-0.041,0.019
			c-0.021,0.011-0.039,0.025-0.056,0.04c-0.002,0.002-0.004,0.004-0.006,0.006c-0.033,0.033-0.057,0.074-0.063,0.124
			c-0.304,0.936-0.608,1.871-0.912,2.807c-0.998,0-1.997,0-2.995,0c-0.27,0-0.321,0.33-0.128,0.47
			c0.801,0.582,1.601,1.163,2.402,1.745c-0.31,0.953-0.619,1.907-0.929,2.861c-0.065,0.199,0.191,0.416,0.372,0.285
			c0.814-0.591,1.629-1.184,2.445-1.776c0.814,0.592,1.629,1.184,2.445,1.776c0.181,0.132,0.436-0.085,0.372-0.285
			c-0.31-0.952-0.619-1.907-0.929-2.86C34.077,49.488,34.878,48.905,35.68,48.324z M34.61,33.965
			c-0.31,0.954-0.619,1.906-0.929,2.86c-0.065,0.2,0.191,0.418,0.372,0.286c0.815-0.592,1.629-1.184,2.444-1.775
			c0.815,0.592,1.629,1.184,2.444,1.775c0.181,0.132,0.436-0.085,0.372-0.286c-0.31-0.954-0.619-1.907-0.929-2.86
			c0.801-0.582,1.601-1.164,2.403-1.745c0.194-0.141,0.142-0.471-0.128-0.471c-0.998,0-1.997,0-2.994,0
			c-0.304-0.936-0.608-1.872-0.913-2.81c-0.001-0.006-0.004-0.01-0.005-0.015c-0.001-0.004-0.003-0.009-0.004-0.013
			c0-0.001-0.001-0.001-0.001-0.002c-0.009-0.034-0.027-0.064-0.05-0.088c-0.004-0.004-0.007-0.007-0.01-0.01
			c-0.016-0.015-0.033-0.027-0.053-0.038c-0.014-0.008-0.027-0.014-0.042-0.02c-0.014-0.004-0.027-0.007-0.041-0.01
			c-0.015-0.003-0.03-0.005-0.046-0.005c-0.02-0.001-0.039,0.002-0.059,0.007c-0.01,0.002-0.02,0.004-0.03,0.007
			c-0.018,0.006-0.033,0.013-0.049,0.022c-0.017,0.009-0.033,0.021-0.047,0.034c-0.004,0.004-0.009,0.009-0.014,0.014
			c-0.023,0.025-0.039,0.053-0.049,0.086c0,0.002-0.001,0.002-0.001,0.004c-0.002,0.006-0.004,0.011-0.006,0.017
			c-0.001,0.004-0.004,0.007-0.004,0.012c-0.304,0.937-0.608,1.873-0.913,2.81c-0.998,0-1.997,0-2.994,0
			c-0.27,0-0.321,0.33-0.128,0.471C33.007,32.801,33.807,33.383,34.61,33.965z"/>
	</g>
</g>
</svg>
