<?xml version="1.0" encoding="utf-8"?>
<!-- Generator: Adobe Illustrator 24.0.0, SVG Export Plug-In . SVG Version: 6.00 Build 0)  -->
<svg version="1.1" id="Layer_1" xmlns="http://www.w3.org/2000/svg" xmlns:xlink="http://www.w3.org/1999/xlink" x="0px" y="0px"
	 viewBox="0 0 90 90" style="enable-background:new 0 0 90 90;" xml:space="preserve">
<style type="text/css">
	.st0{fill:#FFFFFF;}
	.st1{fill:#2560D4;}
</style>
<g>
	<circle class="st1" cx="45" cy="45" r="45"/>
</g>
<g>
	<g id="_05-pool_1_">
		<path class="st0" d="M61.995,34.143V32.66c0-2.357-1.791-4.363-4.141-4.544c-2.643-0.204-4.85,1.897-4.85,4.517v4.53h-7.516
			v-4.511c0-0.72,0.496-1.36,1.202-1.499c0.969-0.191,1.818,0.545,1.818,1.48v1.51h2.95v-1.462c0-2.454-1.952-4.502-4.405-4.532
			c-2.488-0.03-4.515,1.994-4.515,4.495V49.3c-0.692-0.132-1.395-0.196-2.1-0.189c-1.441-0.032-2.869,0.264-4.179,0.866
			c-0.944,0.448-1.981,0.666-3.025,0.635c-1.044,0.031-2.081-0.187-3.025-0.635c-1.309-0.601-2.738-0.897-4.178-0.866v2.998
			c1.043-0.031,2.078,0.186,3.02,0.634c1.307,0.6,2.734,0.896,4.172,0.864c1.439,0.032,2.865-0.264,4.173-0.864
			c0.942-0.448,1.978-0.665,3.021-0.634c1.043-0.031,2.078,0.186,3.02,0.634c1.307,0.6,2.734,0.896,4.172,0.864
			c1.438,0.032,2.865-0.264,4.172-0.864c0.942-0.448,1.977-0.665,3.02-0.634c1.043-0.031,2.078,0.186,3.02,0.634
			c1.307,0.601,2.734,0.896,4.173,0.864v-3c-1.038,0.031-2.069-0.186-3.008-0.631c-0.937-0.429-1.938-0.7-2.963-0.804V32.659
			c0-0.771,0.575-1.44,1.343-1.507c0.874-0.077,1.607,0.621,1.607,1.493v1.498H61.995z M53.005,40.113v3.02h-7.516v-3.02H53.005z
			 M50.623,49.945c-0.945,0.448-1.984,0.665-3.03,0.634c-0.712,0.019-1.423-0.075-2.104-0.281v-4.214h7.516v3.132
			C52.183,49.357,51.383,49.602,50.623,49.945L50.623,49.945z"/>
		<path class="st0" d="M54.803,56.604c-1.438-0.032-2.865,0.264-4.173,0.864c-0.942,0.448-1.977,0.665-3.02,0.634
			c-1.043,0.031-2.078-0.186-3.02-0.634c-1.307-0.6-2.734-0.896-4.172-0.864c-1.439-0.032-2.865,0.264-4.173,0.864
			c-0.942,0.448-1.978,0.665-3.021,0.634c-1.043,0.031-2.078-0.186-3.021-0.634c-1.307-0.6-2.734-0.896-4.172-0.864v2.997
			c1.043-0.031,2.078,0.186,3.02,0.634c1.307,0.6,2.734,0.896,4.172,0.864c1.439,0.032,2.865-0.264,4.173-0.864
			c0.942-0.448,1.978-0.665,3.021-0.634c1.043-0.031,2.078,0.186,3.02,0.634c1.307,0.6,2.734,0.896,4.172,0.864
			c1.438,0.032,2.865-0.264,4.172-0.864c0.942-0.448,1.977-0.665,3.02-0.634c1.043-0.031,2.078,0.186,3.02,0.634
			c1.307,0.601,2.734,0.896,4.173,0.864v-2.997c-1.043,0.031-2.077-0.186-3.02-0.634C57.668,56.868,56.241,56.573,54.803,56.604z"/>
	</g>
</g>
</svg>
