<?xml version="1.0" encoding="utf-8"?>
<!-- Generator: Adobe Illustrator 24.0.0, SVG Export Plug-In . SVG Version: 6.00 Build 0)  -->
<svg version="1.1" id="Layer_1" xmlns="http://www.w3.org/2000/svg" xmlns:xlink="http://www.w3.org/1999/xlink" x="0px" y="0px"
	 viewBox="0 0 90 90" style="enable-background:new 0 0 90 90;" xml:space="preserve">
<style type="text/css">
	.st0{fill:#FFFFFF;}
	.st1{fill:#2560D4;}
</style>
<g>
	<circle class="st1" cx="45" cy="45" r="45"/>
</g>
<g>
	<g>
		<path class="st0" d="M33.64,35.369c0.365,0.278,0.886,0.208,1.164-0.156c2.45-3.21,6.167-5.051,10.196-5.051
			s7.746,1.841,10.196,5.051c0.164,0.214,0.411,0.327,0.661,0.327c0.176,0,0.353-0.056,0.503-0.17
			c0.365-0.278,0.435-0.8,0.156-1.164C53.75,30.579,49.553,28.5,45.001,28.5s-8.75,2.079-11.517,5.705
			C33.205,34.57,33.275,35.091,33.64,35.369z"/>
		<path class="st0" d="M53.831,39.8c0,1.431,1.164,2.594,2.594,2.594s2.594-1.164,2.594-2.594s-1.164-2.594-2.594-2.594
			C54.995,37.206,53.831,38.37,53.831,39.8L53.831,39.8z"/>
		<path class="st0" d="M59.107,43.249c-0.006-0.002-0.664-0.204-0.664-0.204c-0.238-0.073-0.497-0.028-0.696,0.121l-1.312,0.982
			l-1.312-0.982c-0.2-0.149-0.458-0.194-0.696-0.121c0,0-0.658,0.202-0.664,0.204c-1.058,0.353-1.769,1.339-1.769,2.455v3.895
			c0,0.151,0.044,0.299,0.127,0.426l1.316,2.002v5.257c0,0.428,0.347,0.775,0.775,0.775h4.445c0.428,0,0.775-0.347,0.775-0.775
			v-5.257l1.316-2.002c0.083-0.126,0.127-0.274,0.127-0.426v-3.895C60.876,44.588,60.165,43.602,59.107,43.249L59.107,43.249z"/>
		<path class="st0" d="M33.576,42.395c1.431,0,2.594-1.164,2.594-2.594s-1.164-2.594-2.594-2.594c-1.431,0-2.595,1.164-2.595,2.594
			S32.145,42.395,33.576,42.395z"/>
		<path class="st0" d="M36.236,43.249c-0.006-0.002-0.664-0.204-0.664-0.204c-0.238-0.073-0.497-0.028-0.696,0.121l-1.312,0.982
			l-1.312-0.982c-0.199-0.149-0.458-0.194-0.696-0.121c0,0-0.658,0.202-0.664,0.204c-1.058,0.353-1.769,1.339-1.769,2.455v3.895
			c0,0.151,0.044,0.299,0.127,0.426l1.316,2.002v5.257c0,0.428,0.347,0.775,0.775,0.775h4.445c0.428,0,0.775-0.347,0.775-0.775
			v-5.257l1.316-2.002c0.083-0.126,0.127-0.274,0.127-0.426v-3.895C38.006,44.588,37.295,43.602,36.236,43.249z"/>
		<path class="st0" d="M48.347,36.144c0-1.845-1.501-3.346-3.346-3.346s-3.346,1.501-3.346,3.346c0,1.845,1.501,3.346,3.346,3.346
			S48.347,37.989,48.347,36.144z"/>
		<path class="st0" d="M48.74,41.106l-0.006-0.002l-0.958-0.294c-0.151-0.046-0.312,0.034-0.366,0.182l-2.013,5.524
			c-0.116,0.319-0.567,0.319-0.683,0l-2.013-5.524c-0.044-0.12-0.157-0.196-0.279-0.196c-0.029,0-1.044,0.307-1.044,0.307
			c-1.223,0.408-2.04,1.541-2.04,2.823v5.856c0,0.058,0.017,0.114,0.048,0.163l2.061,3.189v8.069c0,0.164,0.133,0.297,0.297,0.297
			h6.512c0.164,0,0.297-0.133,0.297-0.297v-8.069l2.17-3.189c0.033-0.048,0.05-0.105,0.05-0.163v-5.871
			C50.773,42.635,49.953,41.503,48.74,41.106L48.74,41.106z"/>
		<path class="st0" d="M45.463,40.85h-0.924c-0.09,0-0.18,0.022-0.253,0.074c-0.189,0.136-0.231,0.379-0.125,0.562l0.489,0.738
			l-0.229,1.932l0.451,1.2c0.044,0.121,0.215,0.121,0.259,0l0.451-1.2l-0.229-1.932l0.489-0.738
			c0.106-0.183,0.064-0.425-0.125-0.562C45.643,40.872,45.552,40.85,45.463,40.85z"/>
	</g>
</g>
</svg>
