<?xml version="1.0" encoding="utf-8"?>
<!-- Generator: Adobe Illustrator 24.0.0, SVG Export Plug-In . SVG Version: 6.00 Build 0)  -->
<svg version="1.1" id="Layer_1" xmlns="http://www.w3.org/2000/svg" xmlns:xlink="http://www.w3.org/1999/xlink" x="0px" y="0px"
	 viewBox="0 0 90 90" style="enable-background:new 0 0 90 90;" xml:space="preserve">
<style type="text/css">
	.st0{fill:#FFFFFF;}
	.st1{fill:#2560D4;}
</style>
<g>
	<circle class="st1" cx="45" cy="45" r="45"/>
</g>
<g>
	<g>
		<g>
			<path class="st0" d="M57.174,43.396l-1.612-2.206c-0.101-0.142-0.108-0.337-0.007-0.479l1.579-2.226
				c0.142-0.202,0.074-0.486-0.142-0.6l-2.408-1.288c-0.155-0.081-0.243-0.256-0.209-0.432l0.452-2.692
				c0.04-0.243-0.142-0.472-0.391-0.479l-2.725-0.115c-0.175-0.007-0.331-0.128-0.378-0.297l-0.756-2.631
				c-0.067-0.236-0.331-0.364-0.56-0.263l-2.509,1.079c-0.162,0.067-0.351,0.027-0.472-0.101l-1.821-2.031
				c-0.169-0.182-0.452-0.182-0.621,0.007L42.798,30.7c-0.115,0.135-0.304,0.175-0.465,0.108l-2.523-1.039
				c-0.229-0.094-0.486,0.034-0.553,0.27l-0.722,2.631c-0.047,0.169-0.196,0.29-0.371,0.304l-2.725,0.155
				c-0.25,0.013-0.425,0.243-0.385,0.486l0.492,2.685c0.034,0.175-0.054,0.351-0.202,0.432l-2.388,1.322
				c-0.216,0.121-0.277,0.405-0.135,0.6l1.612,2.206c0.101,0.142,0.108,0.337,0.007,0.479l-1.579,2.226
				c-0.142,0.202-0.074,0.486,0.142,0.6l2.408,1.288c0.155,0.081,0.243,0.256,0.209,0.432l-0.452,2.692
				c-0.04,0.243,0.142,0.472,0.391,0.479l2.725,0.115c0.175,0.007,0.331,0.128,0.378,0.297l0.762,2.624
				c0.067,0.236,0.331,0.364,0.56,0.263l2.509-1.079c0.162-0.067,0.351-0.027,0.472,0.101l1.821,2.031
				c0.169,0.182,0.452,0.182,0.621-0.007l1.794-2.058c0.115-0.135,0.304-0.175,0.465-0.108l2.523,1.039
				c0.229,0.094,0.486-0.034,0.553-0.27l0.722-2.631c0.047-0.169,0.196-0.29,0.371-0.304l2.725-0.155
				c0.25-0.013,0.425-0.243,0.385-0.486l-0.492-2.685c-0.034-0.175,0.054-0.351,0.202-0.432l2.388-1.322
				C57.262,43.882,57.322,43.598,57.174,43.396z M45.004,48.435c-4.081,0-7.407-3.326-7.407-7.407s3.326-7.407,7.407-7.407
				c4.081,0,7.407,3.326,7.407,7.407C52.411,45.116,49.086,48.435,45.004,48.435z"/>
			<path class="st0" d="M51.676,53.225c-0.391,0.398-0.938,0.634-1.525,0.634c-0.209,0-0.418-0.034-0.614-0.088l-1.74-0.526
				l-1.342,1.228c-0.047,0.04-0.088,0.081-0.135,0.115l2.159,6.692c0.074,0.236,0.378,0.29,0.533,0.094l1.572-2.017
				c0.074-0.101,0.209-0.142,0.324-0.108l2.449,0.715c0.236,0.067,0.452-0.155,0.378-0.385L51.676,53.225z"/>
			<path class="st0" d="M42.218,53.245l-1.74,0.526c-0.202,0.061-0.405,0.088-0.614,0.088c-0.587,0-1.127-0.236-1.525-0.634
				l-2.058,6.361c-0.074,0.236,0.142,0.452,0.378,0.385l2.449-0.715c0.121-0.034,0.25,0.007,0.324,0.108l1.572,2.017
				c0.148,0.196,0.459,0.142,0.533-0.094l2.159-6.692c-0.047-0.034-0.094-0.074-0.135-0.115L42.218,53.245z"/>
			<path class="st0" d="M49.396,39.186l-2.793-0.202l-1.052-2.59c-0.196-0.486-0.89-0.486-1.086,0l-1.052,2.59l-2.793,0.202
				c-0.526,0.04-0.735,0.695-0.337,1.032l2.138,1.808l-0.668,2.719c-0.128,0.513,0.432,0.917,0.877,0.641l2.375-1.477l2.375,1.477
				c0.445,0.277,1.005-0.128,0.877-0.641l-0.668-2.719l2.138-1.808C50.131,39.881,49.922,39.227,49.396,39.186z"/>
		</g>
	</g>
</g>
</svg>
